<svg width="120" height="120" viewBox="0 0 110 110" xmlns="http://www.w3.org/2000/svg">

  // hair
  <path d="M46 28
           c26 -12 30 24 6 20
           c-14 -2 -10 -12 6 -14"
        fill="none" stroke="black" stroke-width="5" stroke-linecap="round" transform="scale(0.8) translate(15,10)"/>

// left eye
  <path d="
M0 0
C25 -1 51 9 69 25
C75 31 78 35 79 43
C78 50 76 55 71 60
C65 63 60 64 54 63
C50 62 46 59 42 57
C37 53 31 50 24 48
C3 42 -16 45 -32 54
C-36 56 -40 59 -44 61
C-49 64 -54 64 -60 63
C-65 61 -69 58 -72 53
C-74 48 -75 43 -73 37
C-66 22 -50 13 -36 7
C-24 3 -12 1 0 0
" 
fill="black" stroke="black" stroke-width="5" stroke-linecap="round"
transform="translate(62,48) scale(0.1) translate(-220,120)"/>

  // right eye
  <path d="
M0 0
C25 -1 51 9 69 25
C75 31 78 35 79 43
C78 50 76 55 71 60
C65 63 60 64 54 63
C50 62 46 59 42 57
C37 53 31 50 24 48
C3 42 -16 45 -32 54
C-36 56 -40 59 -44 61
C-49 64 -54 64 -60 63
C-65 61 -69 58 -72 53
C-74 48 -75 43 -73 37
C-66 22 -50 13 -36 7
C-24 3 -12 1 0 0
" 
fill="black" stroke="black" stroke-width="5" stroke-linecap="round"
transform="translate(62,48) scale(0.1) translate(50,120)"/>
  

  // mouth
  <path d="
M40 70
C43 71.5 46 73.5 49 75
C63 84 80 90 97 93
C110 95 124 95 137 92
C155 88 171 81 186 71
C191 68 197 68 203 69
C208 71 212 74 214 79
C216 85 216 91 213 96
C202 116 178 127 157 133
C115 144 70 141 32 120
C22 114 9 105 6 93
C5 87 5 81 9 76
C16 68 24 67 40 70
" 
fill="black" stroke="black" stroke-width="5" stroke-linecap="round"
transform="scale(0.1) translate(440, 720)"/>
</svg>